<?xml version="1.0" standalone="no"?>
<!DOCTYPE svg PUBLIC "-//W3C//DTD SVG 20010904//EN"
 "http://www.w3.org/TR/2001/REC-SVG-20010904/DTD/svg10.dtd">
<svg version="1.0" xmlns="http://www.w3.org/2000/svg"
 width="546.000000pt" height="546.000000pt" viewBox="0 0 546.000000 546.000000"
 preserveAspectRatio="xMidYMid meet">
<metadata>
Created by potrace 1.11, written by Peter Selinger 2001-2013
</metadata>
<g transform="translate(0.000000,546.000000) scale(0.100000,-0.100000)"
fill="#000000" stroke="none">
<path d="M1277 5292 c-41 -70 -104 -178 -139 -241 l-64 -113 48 -47 c35 -35
231 -153 745 -451 1740 -1008 2519 -1452 2553 -1457 48 -7 68 16 186 222 91
158 98 174 98 224 0 42 -4 57 -20 68 -10 8 -163 98 -339 199 -434 251 -426
246 -441 269 -7 11 -29 81 -49 155 -62 227 -26 193 -490 462 -220 127 -489
283 -598 345 l-198 114 -169 -46 c-93 -25 -180 -45 -194 -45 -16 0 -181 89
-409 219 -210 120 -396 225 -414 234 l-31 16 -75 -127z"/>
<path d="M720 2328 c0 -1856 -2 -1767 60 -1894 83 -170 231 -294 400 -335 82
-21 2390 -20 2470 0 171 43 317 164 386 317 54 123 54 111 54 1306 l0 1103
-24 45 c-23 43 -45 57 -747 463 -398 230 -829 479 -958 553 l-234 134 -703 0
-704 0 0 -1692z m1945 291 c79 -22 120 -62 192 -184 37 -63 70 -115 73 -115 3
0 39 20 80 44 41 24 76 41 78 36 1 -4 -54 -102 -123 -218 l-127 -210 -131 -7
c-73 -3 -188 -5 -257 -3 l-125 3 73 44 c41 25 76 49 78 56 5 11 -114 225 -125
225 -4 0 -49 -75 -101 -167 -52 -91 -101 -175 -110 -185 -14 -17 -25 -12 -227
104 -117 67 -213 127 -213 132 0 19 186 332 219 369 34 38 73 63 121 78 40 12
579 10 625 -2z m616 -834 c54 -93 103 -192 110 -218 20 -86 9 -118 -147 -389
-80 -139 -155 -263 -166 -275 -12 -13 -44 -34 -72 -48 -46 -23 -61 -25 -188
-25 l-138 0 0 -97 c0 -57 -4 -93 -9 -88 -12 14 -241 427 -241 436 0 9 229 420
241 434 5 5 9 -32 9 -88 l0 -97 136 0 c126 0 136 1 129 18 -3 9 -51 95 -106
190 -56 96 -98 177 -94 180 19 19 412 241 424 239 7 -1 57 -78 112 -172z
m-1527 135 l132 0 124 -207 c118 -195 138 -233 127 -233 -3 0 -39 20 -80 44
-56 33 -78 42 -85 33 -18 -23 -122 -209 -122 -218 0 -5 91 -9 215 -9 l215 0 0
-250 0 -250 -211 0 c-135 0 -226 4 -252 12 -72 22 -117 78 -258 322 -155 270
-159 279 -159 348 0 59 19 106 94 232 26 43 45 80 44 81 -2 1 -38 21 -80 45
-43 23 -78 47 -78 52 0 8 38 9 122 5 66 -4 180 -7 252 -7z"/>
</g>
</svg>
