<svg version="1" xmlns="http://www.w3.org/2000/svg" width="705.333" height="705.333" viewBox="0 0 529.000000 529.000000"><path d="M121.2 11.7c-6.9 11.7-12.1 20.8-18 31.4l-3.1 5.5 12.2 7.1c55.1 32 166.5 96.4 217.7 125.8 15.1 8.7 33.1 19 40 23 6.9 4 21.7 12.5 33 19 11.3 6.4 23.1 13.3 26.3 15.2 3.2 1.9 6 3.4 6.1 3.2.8-1 12.9-21.9 19.8-34.4 4.3-7.6 7.5-14.2 7-14.6-.4-.4-16.7-9.9-36.2-21.2-19.5-11.3-38-22.1-41-23.9l-5.5-3.4-5-18.6c-2.9-11-5.6-19-6.5-19.6-.8-.5-8.9-5.2-18-10.4s-31.1-18-49-28.3-36.7-21.2-41.9-24.2l-9.4-5.4-17.1 4.5c-9.4 2.6-18.2 4.6-19.5 4.6-1.3 0-20-10.1-41.5-22.3-21.5-12.3-40.1-22.9-41.3-23.6-2.1-1.1-2.6-.5-9.1 10.6zM65 309.3c0 165.4 0 169.6 2 177.1 2.7 10.5 7.3 18.8 14.6 26 7.2 7.3 15.5 11.9 26 14.6 7.5 1.9 11.5 2 123.9 2s116.4-.1 123.9-2c20.7-5.3 35.7-20.4 41.1-41.5 1.3-5.1 1.5-21.4 1.5-120.1V251.2l-8.2-4.8c-4.6-2.6-13.5-7.7-19.8-11.4-6.3-3.7-20.7-12-32-18.5s-25.7-14.8-32-18.5c-6.3-3.7-17.8-10.3-25.5-14.7-7.7-4.5-27.7-16-44.4-25.7L205.7 140H65v169.3zm198.2-27.5c6.1 3 10.2 7.7 16.3 18.6 2.8 4.9 5.5 9.1 6.2 9.3.6.3 4.4-1.4 8.3-3.7 3.9-2.3 7.3-4 7.5-3.8.2.2-5.3 9.9-12.3 21.6L276.5 345h-11.1c-6.1 0-17.2.3-24.7.7-8.4.4-13.7.2-13.7-.3 0-.6 3.1-2.7 7-4.7 3.8-2.1 7.2-4.1 7.4-4.5.5-.8-12.5-24.2-13.4-24.2-.3.1-5.2 8.4-10.9 18.5-5.8 10.2-11 18.5-11.5 18.5-1.3 0-41.4-22.9-42.1-24-.7-1.1 18-33.6 21.4-37.3 3-3.4 9.2-6.7 14.1-7.8 1.9-.4 16.1-.7 31.5-.6 27 .2 28.2.3 32.7 2.5zm57.9 82.4l10.4 18.2v17.1l-14.4 24.8c-19.6 33.9-20.7 34.7-43.4 34.7h-12.6l-.3 9.6-.3 9.6-12.3-22.1L236 434l12.2-22.2 12.3-22.2.3 9.7.3 9.7h14c7.7 0 13.8-.3 13.6-.8-.3-.4-4.2-7.2-8.7-15.2-4.6-8-9.4-16.2-10.7-18.3-1.4-2.2-2.3-4-2.1-4.2.2-.1 7.3-4.3 15.8-9.2 8.5-5 17.8-10.4 20.5-12.1 2.8-1.7 5.5-3.1 6.1-3.1.6-.1 5.8 8.1 11.5 18.1zm-126.7 7.6c7 11.7 12.7 21.5 12.5 21.7-.2.2-3.8-1.7-7.9-4.1-4.1-2.4-7.7-4.4-8-4.4-.5 0-12.7 20.5-13.8 23.2-.2.5 9.6.8 21.7.8H221v50h-20.7c-11.5 0-22.5-.5-24.5-1-9.1-2.6-12.9-7.8-35.3-48-9.8-17.6-9.8-21.8.7-39.8 5-8.4 5.9-10.6 4.7-11.3-.8-.5-4.2-2.6-7.6-4.5-3.5-2-6.3-3.8-6.3-4 0-.2 11.1-.3 24.8-.2l24.7.3 12.9 21.3z"/></svg>